<svg xmlns="http://www.w3.org/2000/svg" xmlns:xlink="http://www.w3.org/1999/xlink" width="800" zoomAndPan="magnify" viewBox="0 0 600 449.999984" height="600" preserveAspectRatio="xMidYMid meet" version="1.0"><defs><clipPath id="808698ed84"><path d="M 261.425781 304.742188 L 334.925781 304.742188 L 334.925781 378.242188 L 261.425781 378.242188 Z M 261.425781 304.742188 " clip-rule="nonzero"/></clipPath><clipPath id="66c1efc8b5"><path d="M 298.320312 304.742188 C 277.945312 304.742188 261.425781 321.261719 261.425781 341.636719 C 261.425781 362.015625 277.945312 378.535156 298.320312 378.535156 C 318.699219 378.535156 335.21875 362.015625 335.21875 341.636719 C 335.21875 321.261719 318.699219 304.742188 298.320312 304.742188 Z M 298.320312 304.742188 " clip-rule="nonzero"/></clipPath><clipPath id="aaf9fd4deb"><path d="M 277.101562 336.515625 L 319.851562 336.515625 L 319.851562 374.015625 L 277.101562 374.015625 Z M 277.101562 336.515625 " clip-rule="nonzero"/></clipPath><clipPath id="4e112d6ea8"><path d="M 298.320312 374.015625 L 276.785156 336.332031 L 319.851562 336.332031 Z M 298.320312 374.015625 " clip-rule="nonzero"/></clipPath></defs><g clip-path="url(#808698ed84)"><g clip-path="url(#66c1efc8b5)"><path stroke-linecap="butt" transform="matrix(0.75, 0, 0, 0.75, 261.424503, 304.741939)" fill="none" stroke-linejoin="miter" d="M 49.194417 0.000330715 C 22.027748 0.000330715 0.00170499 22.026374 0.00170499 49.193043 C 0.00170499 76.36492 22.027748 98.390963 49.194417 98.390963 C 76.366294 98.390963 98.392338 76.36492 98.392338 49.193043 C 98.392338 22.026374 76.366294 0.000330715 49.194417 0.000330715 Z M 49.194417 0.000330715 " stroke="#000000" stroke-width="4" stroke-opacity="1" stroke-miterlimit="4"/></g></g><path stroke-linecap="butt" transform="matrix(0.75, 0, 0, 0.75, -3.353957, 112.637518)" fill="none" stroke-linejoin="miter" d="M -0.00201547 0.498934 L 804.472006 0.498934 " stroke="#000000" stroke-width="1" stroke-opacity="1" stroke-miterlimit="4"/><path fill="#000000" d="M 47.25 113.015625 L 47.25 122.015625 L 45.75 122.015625 L 45.75 113.015625 M 47.25 123.515625 L 47.25 132.515625 L 45.75 132.515625 L 45.75 123.515625 M 47.25 134.015625 L 47.25 143.015625 L 45.75 143.015625 L 45.75 134.015625 M 47.25 144.515625 L 47.25 153.515625 L 45.75 153.515625 L 45.75 144.515625 M 47.25 155.015625 L 47.25 164.015625 L 45.75 164.015625 L 45.75 155.015625 M 47.25 165.515625 L 47.25 174.515625 L 45.75 174.515625 L 45.75 165.515625 M 47.25 176.015625 L 47.25 185.015625 L 45.75 185.015625 L 45.75 176.015625 M 47.25 186.515625 L 47.25 195.515625 L 45.75 195.515625 L 45.75 186.515625 M 47.25 197.015625 L 47.25 206.015625 L 45.75 206.015625 L 45.75 197.015625 M 47.25 207.515625 L 47.25 216.515625 L 45.75 216.515625 L 45.75 207.515625 M 47.25 218.015625 L 47.25 227.015625 L 45.75 227.015625 L 45.75 218.015625 M 47.25 228.515625 L 47.25 237.515625 L 45.75 237.515625 L 45.75 228.515625 M 47.25 239.015625 L 47.25 248.015625 L 45.75 248.015625 L 45.75 239.015625 M 47.25 249.515625 L 47.25 258.515625 L 45.75 258.515625 L 45.75 249.515625 M 47.25 260.015625 L 47.25 269.015625 L 45.75 269.015625 L 45.75 260.015625 M 47.25 270.515625 L 47.25 279.515625 L 45.75 279.515625 L 45.75 270.515625 M 47.25 281.015625 L 47.25 290.015625 L 45.75 290.015625 L 45.75 281.015625 M 47.25 291.515625 L 47.25 300.515625 L 45.75 300.515625 L 45.75 291.515625 M 47.25 302.015625 L 47.25 311.015625 L 45.75 311.015625 L 45.75 302.015625 M 47.25 312.515625 L 47.25 321.515625 L 45.75 321.515625 L 45.75 312.515625 M 47.25 323.015625 L 47.25 332.015625 L 45.75 332.015625 L 45.75 323.015625 M 47.25 333.515625 L 47.25 342.515625 L 45.75 342.515625 L 45.75 333.515625 M 47.25 344.015625 L 47.25 353.015625 L 45.75 353.015625 L 45.75 344.015625 M 47.25 354.515625 L 47.25 363.515625 L 45.75 363.515625 L 45.75 354.515625 M 47.25 365.015625 L 47.25 374.015625 L 45.75 374.015625 L 45.75 365.015625 M 47.25 375.515625 L 47.25 384.515625 L 45.75 384.515625 L 45.75 375.515625 M 47.25 386.015625 L 47.25 395.015625 L 45.75 395.015625 L 45.75 386.015625 M 47.25 396.515625 L 47.25 405.515625 L 45.75 405.515625 L 45.75 396.515625 M 47.25 407.015625 L 47.25 416.015625 L 45.75 416.015625 L 45.75 407.015625 M 47.25 417.515625 L 47.25 426.515625 L 45.75 426.515625 L 45.75 417.515625 M 47.25 428.015625 L 47.25 437.015625 L 45.75 437.015625 L 45.75 428.015625 M 47.25 438.515625 L 47.25 447.515625 L 45.75 447.515625 L 45.75 438.515625 M 47.25 449.015625 L 47.25 450 L 45.75 450 L 45.75 449.015625 " fill-opacity="1" fill-rule="nonzero"/><path fill="#000000" d="M 555.75 113.015625 L 555.75 122.015625 L 554.25 122.015625 L 554.25 113.015625 M 555.75 123.515625 L 555.75 132.515625 L 554.25 132.515625 L 554.25 123.515625 M 555.75 134.015625 L 555.75 143.015625 L 554.25 143.015625 L 554.25 134.015625 M 555.75 144.515625 L 555.75 153.515625 L 554.25 153.515625 L 554.25 144.515625 M 555.75 155.015625 L 555.75 164.015625 L 554.25 164.015625 L 554.25 155.015625 M 555.75 165.515625 L 555.75 174.515625 L 554.25 174.515625 L 554.25 165.515625 M 555.75 176.015625 L 555.75 185.015625 L 554.25 185.015625 L 554.25 176.015625 M 555.75 186.515625 L 555.75 195.515625 L 554.25 195.515625 L 554.25 186.515625 M 555.75 197.015625 L 555.75 206.015625 L 554.25 206.015625 L 554.25 197.015625 M 555.75 207.515625 L 555.75 216.515625 L 554.25 216.515625 L 554.25 207.515625 M 555.75 218.015625 L 555.75 227.015625 L 554.25 227.015625 L 554.25 218.015625 M 555.75 228.515625 L 555.75 237.515625 L 554.25 237.515625 L 554.25 228.515625 M 555.75 239.015625 L 555.75 248.015625 L 554.25 248.015625 L 554.25 239.015625 M 555.75 249.515625 L 555.75 258.515625 L 554.25 258.515625 L 554.25 249.515625 M 555.75 260.015625 L 555.75 269.015625 L 554.25 269.015625 L 554.25 260.015625 M 555.75 270.515625 L 555.75 279.515625 L 554.25 279.515625 L 554.25 270.515625 M 555.75 281.015625 L 555.75 290.015625 L 554.25 290.015625 L 554.25 281.015625 M 555.75 291.515625 L 555.75 300.515625 L 554.25 300.515625 L 554.25 291.515625 M 555.75 302.015625 L 555.75 311.015625 L 554.25 311.015625 L 554.25 302.015625 M 555.75 312.515625 L 555.75 321.515625 L 554.25 321.515625 L 554.25 312.515625 M 555.75 323.015625 L 555.75 332.015625 L 554.25 332.015625 L 554.25 323.015625 M 555.75 333.515625 L 555.75 342.515625 L 554.25 342.515625 L 554.25 333.515625 M 555.75 344.015625 L 555.75 353.015625 L 554.25 353.015625 L 554.25 344.015625 M 555.75 354.515625 L 555.75 363.515625 L 554.25 363.515625 L 554.25 354.515625 M 555.75 365.015625 L 555.75 374.015625 L 554.25 374.015625 L 554.25 365.015625 M 555.75 375.515625 L 555.75 384.515625 L 554.25 384.515625 L 554.25 375.515625 M 555.75 386.015625 L 555.75 395.015625 L 554.25 395.015625 L 554.25 386.015625 M 555.75 396.515625 L 555.75 405.515625 L 554.25 405.515625 L 554.25 396.515625 M 555.75 407.015625 L 555.75 416.015625 L 554.25 416.015625 L 554.25 407.015625 M 555.75 417.515625 L 555.75 426.515625 L 554.25 426.515625 L 554.25 417.515625 M 555.75 428.015625 L 555.75 437.015625 L 554.25 437.015625 L 554.25 428.015625 M 555.75 438.515625 L 555.75 447.515625 L 554.25 447.515625 L 554.25 438.515625 M 555.75 449.015625 L 555.75 450 L 554.25 450 L 554.25 449.015625 " fill-opacity="1" fill-rule="nonzero"/><g clip-path="url(#aaf9fd4deb)"><g clip-path="url(#4e112d6ea8)"><path stroke-linecap="butt" transform="matrix(-0.75, 0, 0, -0.75, 319.852721, 374.014219)" fill="none" stroke-linejoin="miter" d="M 28.70988 -0.00187484 L 57.423424 50.242921 L 0.00154487 50.242921 Z M 28.70988 -0.00187484 " stroke="#000000" stroke-width="2" stroke-opacity="1" stroke-miterlimit="4"/></g></g></svg>